<?xml version="1.0" standalone="no"?>
<!DOCTYPE svg PUBLIC "-//W3C//DTD SVG 20010904//EN"
 "http://www.w3.org/TR/2001/REC-SVG-20010904/DTD/svg10.dtd">
<svg version="1.0" xmlns="http://www.w3.org/2000/svg"
 width="1744.000000pt" height="1743.000000pt" viewBox="0 0 1744.000000 1743.000000"
 preserveAspectRatio="xMidYMid meet">

<g transform="translate(0.000000,1743.000000) scale(0.100000,-0.100000)"
fill="#000000" stroke="none">
<path d="M8490 17299 c-646 -18 -1304 -113 -1930 -279 -1318 -349 -2489 -978
-3524 -1889 -177 -155 -595 -574 -744 -745 -857 -981 -1461 -2082 -1818 -3311
-178 -612 -287 -1258 -325 -1917 -13 -236 -7 -939 10 -1138 67 -775 202 -1428
436 -2120 334 -983 837 -1885 1510 -2705 171 -208 317 -368 555 -606 329 -330
601 -566 955 -830 1201 -893 2609 -1458 4085 -1638 403 -49 531 -56 1060 -56
529 0 657 7 1060 56 1476 180 2884 745 4085 1638 546 406 1087 921 1510 1436
673 820 1176 1722 1510 2705 253 747 397 1485 445 2285 13 219 13 771 0 990
-72 1200 -378 2340 -905 3380 -343 676 -734 1255 -1237 1831 -149 171 -567
590 -744 745 -1028 906 -2194 1533 -3502 1884 -613 164 -1303 267 -1892 280
-118 3 -244 7 -280 8 -36 2 -180 0 -320 -4z m800 -1889 c1194 -99 2297 -487
3265 -1148 1652 -1127 2725 -2925 2919 -4892 96 -969 -10 -1932 -311 -2830
-687 -2050 -2317 -3651 -4379 -4301 -1716 -540 -3620 -364 -5196 482 -1892
1015 -3183 2839 -3502 4949 -252 1668 131 3382 1068 4770 994 1473 2504 2490
4231 2849 352 73 624 108 1070 135 109 7 708 -3 835 -14z"/>
</g>
</svg>
