<?xml version="1.0" standalone="no"?>
<!DOCTYPE svg PUBLIC "-//W3C//DTD SVG 20010904//EN"
 "http://www.w3.org/TR/2001/REC-SVG-20010904/DTD/svg10.dtd">
<svg version="1.0" xmlns="http://www.w3.org/2000/svg"
 width="780.000000pt" height="780.000000pt" viewBox="0 0 780.000000 780.000000"
 preserveAspectRatio="xMidYMid meet">

<g transform="translate(0.000000,780.000000) scale(0.100000,-0.100000)"
fill="#000000" stroke="none">
<path d="M381 7774 c-144 -39 -277 -153 -334 -289 -55 -131 -48 -265 21 -400
39 -76 -116 83 2042 -2090 861 -866 1075 -1084 1075 -1095 0 -11 -100 -112
-1566 -1590 -1398 -1410 -1496 -1509 -1531 -1562 -67 -99 -93 -244 -64 -355
81 -319 408 -473 689 -326 64 34 197 165 1628 1597 l1558 1561 1568 -1567
c1697 -1695 1604 -1608 1741 -1637 333 -70 641 238 571 571 -29 137 58 44
-1637 1740 l-1567 1568 1567 1568 c1695 1696 1608 1603 1637 1740 71 337 -252
653 -582 567 -134 -35 -57 38 -1729 -1633 l-1568 -1567 -1572 1571 c-1475
1473 -1577 1572 -1634 1597 -109 48 -213 58 -313 31z"/>
</g>
</svg>
